# xmcd
#
# Track frame offsets:
#	150
#	11269
#	20177
#	30425
#	40172
#	49411
#	61160
#	71153
#	83291
#	95273
#	106740
#	116138
#	131333
#	141332
#
# Disc length: 2028 seconds
#
# Revision: 1
# Processed by: cddbd v1.5.2PL0 Copyright (c) Steve Scherf et al.
# Submitted via: audiograbber 1.83.01
#
DISCID=b107ea0e
DTITLE=Elvis Presley - The King
DYEAR=2009
DGENRE=Rock and Roll
TTITLE0=Jailhouse Rock
TTITLE1=All Shook Up
TTITLE2=Hound Dog
TTITLE3=Heartbreak Hotel
TTITLE4=Don't Be Cruel
TTITLE5=Money Honey
TTITLE6=Good Rockin' Tonight
TTITLE7=Love Me Tender
TTITLE8=Blue Moon
TTITLE9=Have I Told You Lately That I Love You
TTITLE10=True Love
TTITLE11=That's When Your Heartache Begin
TTITLE12=Loving You
TTITLE13=Anyplace Is Paradise
EXTD=
EXTT0=
EXTT1=
EXTT2=
EXTT3=
EXTT4=
EXTT5=
EXTT6=
EXTT7=
EXTT8=
EXTT9=
EXTT10=
EXTT11=
EXTT12=
EXTT13=
PLAYORDER=
